<?xml version="1.0" standalone="no"?><!DOCTYPE svg PUBLIC "-//W3C//DTD SVG 1.1//EN" "http://www.w3.org/Graphics/SVG/1.1/DTD/svg11.dtd"><svg t="1571294804047" class="icon" viewBox="0 0 1024 1024" version="1.1" xmlns="http://www.w3.org/2000/svg" p-id="3409" xmlns:xlink="http://www.w3.org/1999/xlink" width="200" height="200"><defs><style type="text/css"></style></defs><path d="M490.496 512h-87.04c-11.776 0-22.016 9.728-22.016 21.504 0 11.776 9.728 22.016 22.016 22.016h87.04v65.536h-87.04c-11.776 0-22.016 9.728-22.016 21.504 0 11.776 9.728 22.016 22.016 22.016h87.04v87.04c0 11.776 9.728 21.504 22.016 21.504 11.776 0 21.504-9.728 21.504-21.504v-87.04h87.04c11.776 0 21.504-9.728 21.504-22.016 0-11.776-9.728-21.504-21.504-21.504h-87.04v-65.536h87.04c11.776 0 21.504-9.728 21.504-22.016 0-11.776-9.728-21.504-21.504-21.504H490.496z m0-337.408h-32.768c-11.776 0-21.504 9.728-21.504 22.016 0 11.776 9.728 21.504 21.504 21.504h32.768V250.88c0 11.776 9.728 21.504 22.016 21.504 11.776 0 21.504-9.728 21.504-21.504v-32.768h32.768c11.776 0 21.504-9.728 21.504-22.016 0-11.776-9.728-21.504-21.504-21.504h-32.768v-32.768c0-11.776-9.728-22.016-22.016-22.016-11.776 0-22.016 9.728-22.016 22.016 0 0.512 0 32.768 0.512 32.768z m178.688 141.824c18.432-29.184 28.16-63.488 28.16-97.792 0-43.008-14.848-84.48-41.984-117.248 169.472 58.368 291.84 220.16 291.84 410.624 0 240.128-195.072 435.2-435.2 435.2s-435.2-195.072-435.2-435.2c0-190.464 122.368-352.256 292.352-411.136-27.136 33.28-41.984 74.752-41.984 117.248 0 35.84 10.24 69.632 28.16 97.792H337.92c-11.776 0-22.016 9.728-22.016 22.016 0 11.776 9.728 22.016 22.016 22.016h348.16c11.776 0 21.504-9.728 21.504-22.016 0-11.776-9.728-22.016-21.504-22.016l-16.896 0.512z m-55.296 0H410.112c-24.576-25.6-39.936-59.904-39.936-97.792C370.688 140.288 433.664 76.8 512 76.8s141.312 63.488 141.312 141.312c0 37.888-14.848 72.704-39.424 98.304zM479.232 468.48c0-11.776-9.728-22.016-22.016-22.016S435.2 456.192 435.2 468.48v43.52h43.52v-43.52z m109.056 0c0-11.776-9.728-22.016-21.504-22.016-11.776 0-22.016 9.728-22.016 22.016v43.52h43.52v-43.52z" fill="" p-id="3410"></path></svg>